<svg width="1448" height="258" viewBox="0 0 1448 258" fill="none" xmlns="http://www.w3.org/2000/svg">
<rect x="4" width="1440" height="250" fill="#3A3054"/>
<mask id="mask0_0_948" style="mask-type:luminance" maskUnits="userSpaceOnUse" x="4" y="0" width="1440" height="250">
<rect x="4" width="1440" height="250" fill="white"/>
</mask>
<g mask="url(#mask0_0_948)">
<path fill-rule="evenodd" clip-rule="evenodd" d="M834 -63.4815C834 19.3514 858.361 78.6789 948.732 117C1039.1 155.321 1126.42 120.352 1214.01 140.4C1301.6 160.448 1301.6 289.595 1384.09 369.071C1466.57 448.547 1640.49 467.852 1781.91 387.221C1923.32 306.589 1987.43 118.325 1945.17 7.31897C1902.92 -103.687 1821.94 -205 1431.24 -205C1040.53 -205 834 -146.314 834 -63.4815Z" fill="#4B3F6B"/>
<path fill-rule="evenodd" clip-rule="evenodd" d="M-259.351 570.909C-229.666 648.24 -185.662 694.897 -87.5605 698.286C10.5413 701.676 79.5245 637.739 168.482 625.066C257.44 612.392 303.722 732.961 409.211 777.598C514.7 822.236 683.987 777.931 787.113 651.976C890.239 526.021 882.619 327.289 803.391 238.798C724.162 150.307 612.257 84.7429 247.501 224.76C-117.256 364.777 -289.036 493.578 -259.351 570.909Z" fill="#4B3F6B"/>
<path fill-rule="evenodd" clip-rule="evenodd" d="M-510 -377.482C-510 -294.649 -485.639 -235.321 -395.268 -197C-304.897 -158.679 -217.582 -193.648 -129.991 -173.6C-42.4005 -153.552 -42.4006 -24.4053 40.0855 55.071C122.572 134.547 296.491 153.852 437.906 73.2205C579.321 -7.41135 643.427 -195.675 601.173 -306.681C558.919 -417.687 477.943 -519 87.2357 -519C-303.471 -519 -510 -460.314 -510 -377.482Z" fill="#4B3F6B"/>
</g>
</svg>
